<svg width="32" height="32" viewBox="0 0 32 32" fill="none" xmlns="http://www.w3.org/2000/svg">
<path d="M1.00006 1H4.33339L5.00006 4.33333L1.00006 1ZM7.66673 17.6667H24.3334L31.0001 4.33333H5.00006L7.66673 17.6667ZM7.66673 17.6667L5.00006 4.33333L7.66673 17.6667ZM7.66673 17.6667L3.84506 21.4883C2.79506 22.5383 3.53839 24.3333 5.02339 24.3333H24.3334L7.66673 17.6667ZM24.3334 24.3333C23.4493 24.3333 22.6015 24.6845 21.9764 25.3096C21.3513 25.9348 21.0001 26.7826 21.0001 27.6667C21.0001 28.5507 21.3513 29.3986 21.9764 30.0237C22.6015 30.6488 23.4493 31 24.3334 31C25.2174 31 26.0653 30.6488 26.6904 30.0237C27.3155 29.3986 27.6667 28.5507 27.6667 27.6667C27.6667 26.7826 27.3155 25.9348 26.6904 25.3096C26.0653 24.6845 25.2174 24.3333 24.3334 24.3333ZM11.0001 27.6667C11.0001 28.5507 10.6489 29.3986 10.0237 30.0237C9.39863 30.6488 8.55078 31 7.66673 31C6.78267 31 5.93483 30.6488 5.3097 30.0237C4.68458 29.3986 4.33339 28.5507 4.33339 27.6667C4.33339 26.7826 4.68458 25.9348 5.3097 25.3096C5.93483 24.6845 6.78267 24.3333 7.66673 24.3333C8.55078 24.3333 9.39863 24.6845 10.0237 25.3096C10.6489 25.9348 11.0001 26.7826 11.0001 27.6667V27.6667Z" stroke="white" stroke-width="2" stroke-linecap="round" stroke-linejoin="round"/>
</svg>
