<svg width="26" height="34" viewBox="0 0 26 34" fill="none" xmlns="http://www.w3.org/2000/svg">
<path d="M25.7733 16.3179C24.0678 14.5176 21.7938 13.2858 19.4251 12.8121C18.3828 12.5278 17.3406 12.3383 16.2983 12.2436C18.9513 9.11683 18.4776 4.37932 15.3508 1.72632C12.224 -0.926691 7.48654 -0.45294 4.83353 2.67382C2.18052 5.80058 2.65427 10.5381 5.78103 13.1911C6.34953 13.6648 6.91803 14.0438 7.48654 14.2333V16.3179L5.97053 14.8966C4.64403 13.5701 2.46477 13.5701 1.04352 14.8966C-0.282983 16.2231 -0.377733 18.3076 0.94877 19.6341L5.30728 24.7506C5.49678 26.0771 5.97053 27.3089 6.63378 28.4459C7.10753 29.2986 7.77079 30.1514 8.43404 30.8146V32.6149C8.43404 33.1834 8.81304 33.5624 9.38154 33.5624H22.2676C22.7413 33.5624 23.2151 33.0886 23.2151 32.6149V30.1514C25.0153 27.9721 25.9628 25.2244 25.9628 22.4766V16.9811C26.0576 16.6021 25.9628 16.4126 25.7733 16.3179ZM4.92828 7.41133C4.92828 4.28457 7.48653 1.82107 10.6133 1.91582C13.74 1.91582 16.2036 4.47407 16.1088 7.60083C16.1088 9.30633 15.3508 10.8223 14.0243 11.8646V7.12708C13.9759 6.30595 13.6153 5.53442 13.0163 4.97067C12.4173 4.40692 11.6253 4.09365 10.8028 4.09507C9.09729 4.00032 7.58129 5.42157 7.58129 7.12708V12.0541C5.97053 11.1066 5.02303 9.30633 4.92828 7.41133ZM24.1626 22.3819C24.2573 24.8454 23.4046 27.2141 21.7938 29.1091C21.6043 29.2986 21.4148 29.4881 21.4148 29.7724V31.7621H10.4238V30.4356C10.4238 30.1514 10.2343 29.8671 10.0448 29.6776C9.38154 29.1091 8.81304 28.4459 8.33929 27.5931C7.77079 26.6456 7.39179 25.5086 7.20228 24.3716C7.20228 24.1821 7.10753 23.9926 7.01278 23.8031L2.46477 18.4024C2.18052 18.1181 1.99102 17.7391 1.99102 17.2654C1.99102 16.8864 2.18052 16.4126 2.46477 16.1284C3.12803 15.5598 4.07553 15.5598 4.73878 16.1284L7.48654 18.8761V21.7186L9.28679 20.7711V7.12708C9.38154 6.46383 9.95004 5.89533 10.708 5.99008C11.3713 5.99008 12.0345 6.46383 12.0345 7.12708V18.0234L13.9296 18.4024V14.0438C14.0243 13.9491 14.1191 13.9491 14.2138 13.8543C14.8771 13.8543 15.5403 13.9491 16.2036 14.0438V18.8761L17.7196 19.1604V14.2333L18.8566 14.5176C19.3303 14.6123 19.8041 14.8018 20.2778 14.9913V19.7289L21.7938 20.0131V15.6546C22.6466 16.0336 23.4046 16.6021 24.0678 17.2654L24.1626 22.3819Z" fill="#FFAF37"/>
</svg>
