<svg width="113" height="113" viewBox="0 0 113 113" fill="none" xmlns="http://www.w3.org/2000/svg">
<circle cx="56.1328" cy="56.1328" r="40" transform="rotate(-37.8839 56.1328 56.1328)" fill="url(#paint0_linear_555_2311)"/>
<path d="M42.3546 52C42.2706 52 42.2006 51.972 42.1446 51.916C42.0886 51.86 42.0606 51.79 42.0606 51.706C42.0606 51.65 42.0746 51.594 42.1026 51.538L45.2386 47.002L42.2986 42.662C42.2706 42.6153 42.2566 42.5593 42.2566 42.494C42.2566 42.41 42.2846 42.34 42.3406 42.284C42.3966 42.228 42.4666 42.2 42.5506 42.2H43.9786C44.1466 42.2 44.2913 42.2887 44.4126 42.466L46.4706 45.49L48.5426 42.466C48.6639 42.2887 48.8086 42.2 48.9766 42.2H50.3346C50.4186 42.2 50.4886 42.228 50.5446 42.284C50.6006 42.34 50.6286 42.41 50.6286 42.494C50.6286 42.5593 50.6099 42.6153 50.5726 42.662L47.6466 47.002L50.7826 51.538C50.8199 51.6127 50.8386 51.6687 50.8386 51.706C50.8386 51.79 50.8059 51.86 50.7406 51.916C50.6846 51.972 50.6193 52 50.5446 52H49.0606C48.8833 52 48.7433 51.916 48.6406 51.748L46.4006 48.584L44.2026 51.748C44.0813 51.916 43.9366 52 43.7686 52H42.3546ZM52.5061 52C52.4035 52 52.3195 51.9673 52.2541 51.902C52.1981 51.8367 52.1701 51.7527 52.1701 51.65V42.55C52.1701 42.4473 52.2028 42.3633 52.2681 42.298C52.3335 42.2327 52.4175 42.2 52.5201 42.2H53.7801C53.8828 42.2 53.9621 42.2327 54.0181 42.298C54.0835 42.3633 54.1161 42.4473 54.1161 42.55V48.976L58.7221 42.424C58.8248 42.2747 58.9601 42.2 59.1281 42.2H60.2901C60.3928 42.2 60.4721 42.2327 60.5281 42.298C60.5935 42.3633 60.6261 42.4473 60.6261 42.55V51.664C60.6261 51.7573 60.5935 51.8367 60.5281 51.902C60.4721 51.9673 60.3928 52 60.2901 52H59.0301C58.9275 52 58.8435 51.972 58.7781 51.916C58.7128 51.8507 58.6801 51.7667 58.6801 51.664V45.364L54.0881 51.776C54.0321 51.8507 53.9761 51.9067 53.9201 51.944C53.8641 51.9813 53.7848 52 53.6821 52H52.5061ZM65.2988 52C65.2055 52 65.1262 51.9673 65.0608 51.902C64.9955 51.8367 64.9628 51.7573 64.9628 51.664V43.922H62.3728C62.2795 43.922 62.2002 43.8893 62.1348 43.824C62.0695 43.7587 62.0368 43.6793 62.0368 43.586V42.55C62.0368 42.4473 62.0648 42.3633 62.1208 42.298C62.1862 42.2327 62.2702 42.2 62.3728 42.2H69.5128C69.6155 42.2 69.6995 42.2327 69.7648 42.298C69.8302 42.3633 69.8628 42.4473 69.8628 42.55V43.586C69.8628 43.6793 69.8302 43.7587 69.7648 43.824C69.6995 43.8893 69.6155 43.922 69.5128 43.922H66.9368V51.664C66.9368 51.7573 66.9042 51.8367 66.8388 51.902C66.7735 51.9673 66.6895 52 66.5868 52H65.2988ZM25.5657 69C25.4724 69 25.393 68.9673 25.3277 68.902C25.2624 68.8367 25.2297 68.7573 25.2297 68.664V59.55C25.2297 59.4473 25.2577 59.3633 25.3137 59.298C25.379 59.2327 25.463 59.2 25.5657 59.2H32.9017C33.0044 59.2 33.0884 59.2327 33.1537 59.298C33.219 59.3633 33.2517 59.4473 33.2517 59.55V68.664C33.2517 68.7667 33.219 68.8507 33.1537 68.916C33.0884 68.972 33.0044 69 32.9017 69H31.6417C31.5484 69 31.469 68.9673 31.4037 68.902C31.3384 68.8367 31.3057 68.7573 31.3057 68.664V60.95H27.1757V68.664C27.1757 68.7573 27.143 68.8367 27.0777 68.902C27.0217 68.9673 26.9424 69 26.8397 69H25.5657ZM35.7649 69C35.6716 69 35.5922 68.9673 35.5269 68.902C35.4616 68.8367 35.4289 68.7573 35.4289 68.664V59.55C35.4289 59.4473 35.4569 59.3633 35.5129 59.298C35.5782 59.2327 35.6622 59.2 35.7649 59.2H39.5169C40.6369 59.2 41.5189 59.466 42.1629 59.998C42.8069 60.5207 43.1289 61.2907 43.1289 62.308C43.1289 63.3253 42.8069 64.0953 42.1629 64.618C41.5282 65.1313 40.6462 65.388 39.5169 65.388H37.4309V68.664C37.4309 68.7573 37.3982 68.8367 37.3329 68.902C37.2769 68.9673 37.1976 69 37.0949 69H35.7649ZM39.4469 63.834C39.9882 63.834 40.4036 63.708 40.6929 63.456C40.9822 63.1947 41.1269 62.812 41.1269 62.308C41.1269 61.8227 40.9869 61.4447 40.7069 61.174C40.4269 60.894 40.0069 60.754 39.4469 60.754H37.4029V63.834H39.4469ZM48.4234 69.14C47.1541 69.14 46.1648 68.818 45.4554 68.174C44.7461 67.53 44.3728 66.5733 44.3354 65.304C44.3261 65.0333 44.3214 64.6367 44.3214 64.114C44.3214 63.582 44.3261 63.1807 44.3354 62.91C44.3728 61.6687 44.7554 60.7167 45.4834 60.054C46.2114 59.3913 47.1914 59.06 48.4234 59.06C49.6554 59.06 50.6354 59.3913 51.3634 60.054C52.1008 60.7167 52.4881 61.6687 52.5254 62.91C52.5441 63.4513 52.5534 63.8527 52.5534 64.114C52.5534 64.366 52.5441 64.7627 52.5254 65.304C52.4788 66.5733 52.1008 67.53 51.3914 68.174C50.6821 68.818 49.6928 69.14 48.4234 69.14ZM48.4234 67.53C49.0488 67.53 49.5481 67.3433 49.9214 66.97C50.2948 66.5873 50.4954 66.0087 50.5234 65.234C50.5421 64.674 50.5514 64.296 50.5514 64.1C50.5514 63.8853 50.5421 63.5073 50.5234 62.966C50.4954 62.1913 50.2948 61.6173 49.9214 61.244C49.5481 60.8613 49.0488 60.67 48.4234 60.67C47.8074 60.67 47.3128 60.8613 46.9394 61.244C46.5661 61.6173 46.3654 62.1913 46.3374 62.966C46.3281 63.2367 46.3234 63.6147 46.3234 64.1C46.3234 64.576 46.3281 64.954 46.3374 65.234C46.3654 66.0087 46.5614 66.5873 46.9254 66.97C47.2988 67.3433 47.7981 67.53 48.4234 67.53ZM53.9998 70.946C53.8971 70.946 53.8131 70.9133 53.7478 70.848C53.6918 70.792 53.6638 70.7127 53.6638 70.61V67.586C53.6638 67.4833 53.6965 67.404 53.7618 67.348C53.8271 67.2827 53.9065 67.25 53.9998 67.25H54.2798C54.7185 67.25 55.0405 66.8487 55.2458 66.046C55.4511 65.234 55.5538 64.0393 55.5538 62.462V59.536C55.5538 59.4333 55.5865 59.354 55.6518 59.298C55.7171 59.2327 55.7965 59.2 55.8898 59.2H61.8958C61.9985 59.2 62.0825 59.2327 62.1478 59.298C62.2131 59.3633 62.2458 59.4473 62.2458 59.55V67.25H62.9178C63.0205 67.25 63.1045 67.2827 63.1698 67.348C63.2351 67.4133 63.2678 67.4927 63.2678 67.586V70.61C63.2678 70.7033 63.2351 70.7827 63.1698 70.848C63.1045 70.9133 63.0205 70.946 62.9178 70.946H61.6578C61.5645 70.946 61.4851 70.9133 61.4198 70.848C61.3545 70.792 61.3218 70.7127 61.3218 70.61V69H55.6098V70.61C55.6098 70.7127 55.5771 70.792 55.5118 70.848C55.4465 70.9133 55.3625 70.946 55.2598 70.946H53.9998ZM60.2998 67.25V60.95H57.4298V62.714C57.4298 63.862 57.3645 64.8047 57.2338 65.542C57.1125 66.2793 56.9211 66.8487 56.6598 67.25H60.2998ZM64.2214 69C64.1468 69 64.0768 68.972 64.0114 68.916C63.9554 68.86 63.9274 68.79 63.9274 68.706L63.9554 68.58L67.3294 59.55C67.3948 59.3167 67.5581 59.2 67.8194 59.2H69.3454C69.5881 59.2 69.7514 59.3167 69.8354 59.55L73.2094 68.58C73.2188 68.608 73.2234 68.65 73.2234 68.706C73.2234 68.79 73.1954 68.86 73.1394 68.916C73.0834 68.972 73.0181 69 72.9434 69H71.7254C71.6041 69 71.5108 68.972 71.4454 68.916C71.3801 68.86 71.3381 68.7993 71.3194 68.734L70.6614 67.026H66.5034L65.8454 68.734C65.7708 68.9113 65.6354 69 65.4394 69H64.2214ZM70.1714 65.416L68.5754 61.09L66.9934 65.416H70.1714ZM87.3965 68.524C87.4151 68.552 87.4245 68.6033 87.4245 68.678C87.4245 68.762 87.3918 68.8367 87.3265 68.902C87.2705 68.9673 87.1958 69 87.1025 69H85.6745C85.4971 69 85.3525 68.9207 85.2405 68.762L82.8325 64.912H81.5865V68.678C81.5865 68.7713 81.5538 68.8507 81.4885 68.916C81.4231 68.972 81.3438 69 81.2505 69H80.0325C79.9391 69 79.8598 68.9673 79.7945 68.902C79.7291 68.8367 79.6965 68.7573 79.6965 68.664V64.912H78.4365L76.0425 68.762C75.9491 68.9207 75.8091 69 75.6225 69H74.1805C74.0965 69 74.0218 68.9673 73.9565 68.902C73.9005 68.8367 73.8725 68.762 73.8725 68.678C73.8725 68.6033 73.8818 68.552 73.9005 68.524L76.8125 63.932L74.1665 59.662C74.1291 59.6153 74.1105 59.5593 74.1105 59.494C74.1105 59.41 74.1338 59.34 74.1805 59.284C74.2365 59.228 74.3111 59.2 74.4045 59.2H75.7765C76.0098 59.2 76.1778 59.284 76.2805 59.452L78.5345 63.176L79.6965 63.162V59.536C79.6965 59.4427 79.7291 59.3633 79.7945 59.298C79.8598 59.2327 79.9391 59.2 80.0325 59.2H81.2505C81.3531 59.2 81.4325 59.2327 81.4885 59.298C81.5538 59.354 81.5865 59.4333 81.5865 59.536V63.162L82.7345 63.176L85.0025 59.452C85.1051 59.284 85.2731 59.2 85.5065 59.2H86.8925C86.9858 59.2 87.0558 59.228 87.1025 59.284C87.1585 59.34 87.1865 59.41 87.1865 59.494C87.1865 59.5313 87.1678 59.5873 87.1305 59.662L84.4845 63.932L87.3965 68.524Z" fill="#001569"/>
<defs>
<linearGradient id="paint0_linear_555_2311" x1="56.1328" y1="16.1328" x2="56.1328" y2="96.1328" gradientUnits="userSpaceOnUse">
<stop stop-color="#FFAF37"/>
<stop offset="1" stop-color="#FFE76B"/>
</linearGradient>
</defs>
</svg>
