<svg width="60" height="59" viewBox="0 0 60 59" fill="none" xmlns="http://www.w3.org/2000/svg">
<path d="M12.6096 21.6206V17.8894V15.5179C12.6096 15.4679 12.5898 15.4235 12.5633 15.4235H9.51437C9.48886 15.4235 9.46619 15.4679 9.46619 15.5179V21.6206C9.46619 21.647 9.47375 21.6687 9.47752 21.6839L9.4813 21.6867H9.48508C9.48886 21.7018 9.50209 21.7122 9.51437 21.7122H12.5633C12.5888 21.7122 12.6096 21.6725 12.6096 21.6206Z" fill="#FFAF37"/>
<path d="M19.6712 19.308H2.26941C2.12579 19.308 2.00769 19.3278 2.00769 19.3543V22.288C2.00769 22.3135 2.12579 22.3324 2.26941 22.3324H19.6712C19.7486 22.3324 19.811 22.3286 19.8516 22.321L19.8592 22.3172H19.8648C19.9074 22.3116 19.9348 22.2983 19.9348 22.287V20.42V19.3533C19.9357 19.3288 19.8157 19.308 19.6712 19.308Z" fill="#FFAF37"/>
<path d="M21.7527 20.8175H0.325019C0.147392 20.8175 0 20.843 0 20.8761V24.4853C0 24.5193 0.147392 24.5429 0.325019 24.5429H21.7527C21.8471 24.5429 21.9227 24.5382 21.9737 24.5288L21.9813 24.5269C21.9851 24.5269 21.9851 24.5231 21.9889 24.5231C22.0399 24.5165 22.0767 24.5051 22.0767 24.4863V22.1913V20.877C22.0777 20.843 21.9303 20.8175 21.7527 20.8175Z" fill="#FFAF37"/>
<path d="M20.7672 0H1.30199C1.14231 0 1.0072 0.116213 1.0072 0.248488V16.3879C1.0072 16.5249 1.14231 16.6393 1.30199 16.6393H20.7672C20.8408 16.6422 20.913 16.6184 20.9704 16.5722L20.9779 16.5646L20.9836 16.5533C21.0089 16.5337 21.0293 16.5085 21.0431 16.4796C21.0569 16.4507 21.0637 16.419 21.063 16.387V6.1234V0.247543C21.063 0.116213 20.9297 0 20.7672 0Z" fill="#FFAF37"/>
<path d="M20.2456 0.917114H2.38378C2.23638 0.917114 2.1145 1.02199 2.1145 1.14576V15.9511C2.1145 16.0768 2.23638 16.1817 2.38378 16.1817H20.2456C20.325 16.1817 20.3874 16.1599 20.4318 16.1231C20.4318 16.1231 20.4318 16.1193 20.4356 16.1136C20.4393 16.1136 20.4393 16.1089 20.4431 16.1042C20.4665 16.0862 20.4853 16.063 20.4981 16.0364C20.5109 16.0098 20.5173 15.9806 20.5168 15.9511V6.53787V1.14576C20.5168 1.02199 20.393 0.917114 20.2456 0.917114Z" fill="#FFAF37"/>
<path d="M18.974 1.47449H2.96398C2.83076 1.47449 2.72021 1.56897 2.72021 1.67951V14.9543C2.72021 15.0667 2.83076 15.1612 2.96398 15.1612H18.974C19.0341 15.1636 19.093 15.1445 19.1403 15.1073C19.1403 15.1073 19.1403 15.1026 19.1441 15.0988C19.1478 15.0988 19.1478 15.095 19.1516 15.0913C19.172 15.0748 19.1884 15.0539 19.1995 15.0302C19.2107 15.0064 19.2163 14.9805 19.2159 14.9543V6.51417V1.67951C19.2159 1.56897 19.1053 1.47449 18.974 1.47449Z" fill="#FFAF37"/>
<path d="M11.2754 10.3483C13.9512 12.3958 16.5655 13.7865 19.2875 14.6293V1.68147C19.2875 1.56998 19.177 1.47644 19.0438 1.47644H4.35083C5.8616 5.10645 8.45892 8.19791 11.2754 10.3483Z" fill="#FFAF37"/>
<path d="M11.2934 12.5195C8.06404 10.2756 4.83086 7.16709 2.79004 3.32544V14.9553C2.79004 15.0677 2.90058 15.1622 3.0338 15.1622H16.1026C14.4088 14.4575 12.7964 13.5714 11.2934 12.5195Z" fill="#FFAF37"/>
<path d="M50.5291 21.6206V17.8894V15.5179C50.5291 15.4679 50.5074 15.4235 50.4809 15.4235H47.432C47.4102 15.4235 47.3876 15.4679 47.3876 15.5179V21.6206C47.3876 21.647 47.3914 21.6687 47.398 21.6839L47.3999 21.6867H47.4036C47.4103 21.7018 47.4225 21.7122 47.432 21.7122H50.4809C50.5074 21.7122 50.5291 21.6725 50.5291 21.6206Z" fill="#FFAF37"/>
<path d="M57.5869 19.308H40.1852C40.0425 19.308 39.9235 19.3278 39.9235 19.3543V22.288C39.9235 22.3135 40.0425 22.3324 40.1852 22.3324H57.5869C57.6644 22.3324 57.7268 22.3286 57.7683 22.321L57.7749 22.3172H57.7825C57.8231 22.3116 57.8524 22.2983 57.8524 22.287V20.42V19.3533C57.8524 19.3288 57.7334 19.308 57.5869 19.308Z" fill="#FFAF37"/>
<path d="M59.675 20.8175H38.2473C38.0697 20.8175 37.9242 20.843 37.9242 20.8761V24.4853C37.9242 24.5193 38.0697 24.5429 38.2473 24.5429H59.675C59.7713 24.5429 59.845 24.5382 59.897 24.5288C59.9008 24.5288 59.9008 24.5269 59.9036 24.5269C59.9074 24.5269 59.9093 24.5231 59.9093 24.5231C59.9631 24.5165 60 24.5051 60 24.4863V22.1913V20.877C60 20.843 59.8535 20.8175 59.675 20.8175Z" fill="#FFAF37"/>
<path d="M58.6924 0H39.2281C39.0656 0 38.9324 0.116213 38.9324 0.249433V16.3889C38.9324 16.5259 39.0665 16.6402 39.2281 16.6402H58.6943C58.7676 16.643 58.8394 16.6192 58.8965 16.5731L58.905 16.5656L58.9116 16.5542C58.9364 16.5343 58.9562 16.5089 58.9697 16.4801C58.9831 16.4513 58.9897 16.4197 58.9891 16.3879V6.12434V0.248488C58.9891 0.116213 58.8568 0 58.6943 0" fill="#FFAF37"/>
<path d="M58.1652 0.917114H40.3033C40.1569 0.917114 40.0341 1.02199 40.0341 1.14576V15.9511C40.0341 16.0768 40.1569 16.1817 40.3033 16.1817H58.1652C58.2316 16.1843 58.2968 16.1636 58.3494 16.1231C58.3494 16.1231 58.3494 16.1193 58.3532 16.1136C58.357 16.1136 58.3589 16.1089 58.3608 16.1042C58.3843 16.0863 58.4034 16.0631 58.4163 16.0365C58.4293 16.01 58.4358 15.9807 58.4354 15.9511V6.53787V1.14576C58.4364 1.02199 58.3135 0.917114 58.1652 0.917114Z" fill="#FFAF37"/>
<path d="M56.8972 1.47449H40.8872C40.754 1.47449 40.6434 1.56897 40.6434 1.67951V14.9543C40.6434 15.0667 40.754 15.1612 40.8872 15.1612H56.8972C56.9573 15.1636 57.0163 15.1445 57.0635 15.1073L57.0673 15.0988C57.0711 15.0988 57.073 15.095 57.0758 15.0913C57.096 15.0746 57.1123 15.0537 57.1236 15.03C57.1348 15.0063 57.1408 14.9805 57.141 14.9543V6.51417V1.67951C57.141 1.56897 57.0304 1.47449 56.8972 1.47449Z" fill="#FFAF37"/>
<path d="M49.1969 10.3483C51.8727 12.3958 54.4898 13.7865 57.209 14.6293V1.68147C57.209 1.56998 57.0994 1.47644 56.9653 1.47644H42.2751C43.7831 5.10645 46.3813 8.19791 49.1969 10.3483Z" fill="#FFAF37"/>
<path d="M49.2158 12.5195C45.9845 10.2756 42.7523 7.16709 40.7124 3.32544V14.9553C40.7124 15.0677 40.8248 15.1622 40.9562 15.1622H54.0259C52.3324 14.4577 50.7202 13.5716 49.2177 12.5195" fill="#FFAF37"/>
<path d="M30.8891 55.5964V51.8652V49.4947C30.8891 49.4427 30.8673 49.3983 30.8409 49.3983H27.7948C27.7683 49.3983 27.7466 49.4427 27.7466 49.4947V55.5964C27.7466 55.6219 27.7541 55.6445 27.7579 55.6578L27.7617 55.6615H27.7626C27.7683 55.6767 27.7815 55.688 27.7948 55.688H30.8409C30.8673 55.688 30.8891 55.6474 30.8891 55.5964Z" fill="#FFAF37"/>
<path d="M37.944 53.2902H20.5423C20.3987 53.2902 20.2787 53.3081 20.2787 53.3346V56.2682C20.2787 56.2947 20.3987 56.3126 20.5423 56.3126H37.944C38.0215 56.3126 38.082 56.3089 38.1245 56.3023C38.1245 56.3023 38.1283 56.3023 38.1321 56.2985H38.1358C38.1802 56.29 38.2076 56.2796 38.2076 56.2682V54.4013V53.3346C38.2076 53.3081 38.0877 53.2902 37.944 53.2902Z" fill="#FFAF37"/>
<path d="M40.0312 54.7924H18.6054C18.4278 54.7924 18.2804 54.8169 18.2804 54.8509V58.4611C18.2804 58.4951 18.4278 58.5197 18.6054 58.5197H40.0312C40.1275 58.5197 40.2012 58.5131 40.2541 58.5046C40.2579 58.5046 40.2579 58.5008 40.2617 58.5008C40.2617 58.5008 40.2655 58.5008 40.2693 58.497C40.3222 58.4904 40.3562 58.4781 40.3562 58.4602V56.1642V54.85C40.3562 54.8169 40.2107 54.7924 40.0312 54.7924Z" fill="#FFAF37"/>
<path d="M39.0514 33.9785H19.5862C19.4237 33.9785 19.2914 34.0928 19.2914 34.227V50.3655C19.2914 50.5025 19.4246 50.6168 19.5862 50.6168H39.0495C39.123 50.6203 39.1954 50.5976 39.2536 50.5526L39.2583 50.5431C39.2583 50.5431 39.264 50.5365 39.2659 50.5318C39.2912 50.5122 39.3116 50.4869 39.3255 50.4581C39.3394 50.4292 39.3465 50.3976 39.3462 50.3655V40.1066V34.227C39.3462 34.0928 39.212 33.9785 39.0495 33.9785" fill="#FFAF37"/>
<path d="M38.5205 34.8846H20.6595C20.5121 34.8846 20.3903 34.9905 20.3903 35.1133V49.9196C20.3903 50.0462 20.5121 50.1483 20.6595 50.1483H38.5214C38.6008 50.1483 38.6631 50.1265 38.7075 50.0916C38.7075 50.0916 38.7075 50.0859 38.7113 50.0821C38.7151 50.0821 38.7151 50.0736 38.7198 50.0698C38.7428 50.0519 38.7613 50.029 38.7739 50.0028C38.7865 49.9765 38.7929 49.9478 38.7926 49.9187V40.5045V35.1123C38.7916 34.9914 38.6669 34.8846 38.5205 34.8846Z" fill="#FFAF37"/>
<path d="M37.2525 35.4493H21.2444C21.1112 35.4493 21.0006 35.5457 21.0006 35.6553V48.9301C21.0006 49.0416 21.1112 49.1341 21.2444 49.1341H37.2525C37.3124 49.1379 37.3717 49.1194 37.4188 49.0822L37.4245 49.0718C37.4292 49.0718 37.4292 49.0699 37.432 49.0633C37.4522 49.0472 37.4686 49.0268 37.4798 49.0036C37.4911 48.9804 37.4971 48.9549 37.4972 48.9291V40.4862V35.6534C37.4972 35.5457 37.3829 35.4493 37.2525 35.4493Z" fill="#FFAF37"/>
<path d="M29.556 44.3238C32.2317 46.3713 34.846 47.763 37.5681 48.6067V35.6589C37.5681 35.5493 37.4575 35.4529 37.3243 35.4529H22.6313C24.1412 39.0819 26.7394 42.1743 29.556 44.3238Z" fill="#FFAF37"/>
<path d="M29.574 46.4978C26.3446 44.2558 23.1114 41.1473 21.0706 37.3057V48.9364C21.0706 49.0479 21.1811 49.1405 21.3143 49.1405H34.3812C32.6871 48.4378 31.0751 47.5516 29.574 46.4978Z" fill="#FFAF37"/>
<path d="M38.5394 8.54936C38.5394 9.41482 37.8346 10.1178 36.9691 10.1178H23.2248C23.0188 10.1178 22.8149 10.0772 22.6246 9.99838C22.4343 9.91956 22.2614 9.80403 22.1157 9.65839C21.9701 9.51275 21.8546 9.33985 21.7758 9.14957C21.6969 8.95928 21.6564 8.75533 21.6564 8.54936C21.6564 8.3434 21.6969 8.13945 21.7758 7.94916C21.8546 7.75887 21.9701 7.58597 22.1157 7.44033C22.2614 7.29469 22.4343 7.17916 22.6246 7.10034C22.8149 7.02153 23.0188 6.98096 23.2248 6.98096H36.9691C37.8346 6.98096 38.5394 7.68202 38.5394 8.54936Z" fill="#FFAF37"/>
<path d="M52.5038 27.2795C53.1936 27.8039 53.3221 28.7913 52.7948 29.48L44.4237 40.3804C44.2999 40.5483 44.1438 40.6898 43.9647 40.7967C43.7855 40.9035 43.5869 40.9736 43.3803 41.0028C43.1738 41.032 42.9635 41.0197 42.7618 40.9666C42.56 40.9136 42.3709 40.8209 42.2054 40.6939C42.0399 40.5669 41.9014 40.4082 41.798 40.227C41.6945 40.0459 41.6282 39.846 41.603 39.6389C41.5777 39.4318 41.594 39.2218 41.6508 39.0211C41.7077 38.8204 41.804 38.6331 41.9341 38.47L50.3043 27.5677C50.5579 27.238 50.932 27.0224 51.3444 26.9684C51.7569 26.9143 52.1739 27.0263 52.5038 27.2795Z" fill="#FFAF37"/>
<path d="M5.82582 27.2797C5.49625 27.5336 5.28083 27.9078 5.22681 28.3203C5.17279 28.7328 5.28457 29.1499 5.53765 29.4802L13.9097 40.3806C14.1631 40.7105 14.5371 40.9262 14.9495 40.9803C15.3619 41.0345 15.7789 40.9226 16.1088 40.6692C16.4387 40.4159 16.6544 40.0419 16.7086 39.6295C16.7627 39.2171 16.6508 38.8 16.3974 38.4701L8.02726 27.5669C7.77305 27.2374 7.39857 27.0221 6.9859 26.9683C6.57324 26.9145 6.15607 27.0264 5.82582 27.2797Z" fill="#FFAF37"/>
</svg>
