<svg width="60" height="53" viewBox="0 0 60 53" fill="none" xmlns="http://www.w3.org/2000/svg">
<path d="M40.2501 44.9863C39.6325 46.5744 38.5914 47.6332 37.4091 47.6332H22.4807C21.2808 47.6332 20.2574 46.5744 19.6398 44.9863H0V48.0743C0.0903138 49.2059 0.622095 50.2566 1.4805 50.9995C2.33891 51.7423 3.45506 52.1177 4.58791 52.0446H55.4078C56.5406 52.1177 57.6568 51.7423 58.5152 50.9995C59.3736 50.2566 59.9054 49.2059 59.9957 48.0743V44.9863H40.2501Z" fill="#FFAF37"/>
<path d="M49.4082 26.2812H54.7019V41.4566H49.4082V26.2812Z" fill="#FFAF37"/>
<path d="M10.5872 16.7527H31.7622V16.5585L35.8031 9.69434H7.94037C7.22271 9.71284 6.54152 10.0146 6.04559 10.5337C5.54966 11.0527 5.27928 11.747 5.2935 12.4647V41.4568H10.5872V16.7527Z" fill="#FFAF37"/>
<path d="M45.6143 1.11866L35.5209 18.5174C35.2861 18.8621 35.1513 19.2651 35.1315 19.6816C35.1116 20.0982 35.2075 20.5122 35.4085 20.8776C35.6095 21.2431 35.9077 21.5457 36.2702 21.752C36.6326 21.9584 37.0451 22.0603 37.462 22.0466H57.6664C58.0833 22.0603 58.4958 21.9584 58.8582 21.752C59.2207 21.5457 59.5189 21.2431 59.7199 20.8776C59.9209 20.5122 60.0168 20.0982 59.9969 19.6816C59.9771 19.2651 59.8423 18.8621 59.6075 18.5174L49.5141 1.11866C49.315 0.778197 49.0303 0.495786 48.6882 0.299526C48.3461 0.103267 47.9586 0 47.5642 0C47.1698 0 46.7823 0.103267 46.4402 0.299526C46.0981 0.495786 45.8134 0.778197 45.6143 1.11866Z" fill="#FFAF37"/>
</svg>
