<svg width="64" height="64" viewBox="0 0 64 64" fill="none" xmlns="http://www.w3.org/2000/svg">
<path d="M23.4286 62H6.28572C5.14907 62 4.05899 61.5485 3.25526 60.7447C2.45153 59.941 2 58.8509 2 57.7143V6.28571C2 5.14907 2.45153 4.05898 3.25526 3.25526C4.05899 2.45153 5.14907 2 6.28572 2H23.4286C24.5652 2 25.6553 2.45153 26.459 3.25526C27.2628 4.05898 27.7143 5.14907 27.7143 6.28571V57.7143C27.7143 58.8509 27.2628 59.941 26.459 60.7447C25.6553 61.5485 24.5652 62 23.4286 62ZM23.4286 62H47H23.4286ZM36.2857 49.1429V62V49.1429ZM27.7143 23.4286H2H27.7143ZM21.2857 49.1429H8.42857H21.2857ZM57.7143 14.8571H27.7143V49.1429H57.7143C58.8509 49.1429 59.941 48.6913 60.7447 47.8876C61.5485 47.0839 62 45.9938 62 44.8571V19.1429C62 18.0062 61.5485 16.9161 60.7447 16.1124C59.941 15.3087 58.8509 14.8571 57.7143 14.8571V14.8571Z" stroke="#FFAF37" stroke-width="4"/>
</svg>
