<svg width="60" height="60" viewBox="0 0 60 60" fill="none" xmlns="http://www.w3.org/2000/svg">
<path d="M50.4844 0.015625V14.0273L50.499 14.0283C53.0563 14.1594 55.4656 15.2668 57.2305 17.1221C58.9953 18.9775 59.9813 21.4393 59.9844 24V47.9844H50.5156V44.0156H56.0156V24L56.0078 23.7021C55.9326 22.2158 55.3093 20.8054 54.252 19.748C53.1242 18.6203 51.5949 17.9862 50 17.9844H10L9.70215 17.9922C8.21576 18.0674 6.8054 18.6907 5.74805 19.748C4.62029 20.8758 3.98617 22.4051 3.98438 24V44.0156H8.48438V47.9844H0.015625V24L0.0273438 23.5215C0.144513 21.1341 1.11492 18.8616 2.76953 17.1221C4.53436 15.2668 6.94372 14.1594 9.50098 14.0283L9.51562 14.0273V0.015625H50.4844ZM13.4844 14.0156H46.5156V3.98438H13.4844V14.0156Z" fill="#FFAF37" stroke="#FFAF37" stroke-width="0.03125"/>
<path d="M51.4844 23.0157V26.9845H47.5156V23.0157H51.4844Z" fill="#FFAF37" stroke="#FFAF37" stroke-width="0.03125"/>
<path d="M51.4844 31.0155V34.9843H46.4844V59.9843H12.5156V34.9843H7.51562V31.0155H51.4844ZM16.4844 56.0155H42.5156V34.9843H16.4844V56.0155Z" fill="#FFAF37" stroke="#FFAF37" stroke-width="0.03125"/>
</svg>
