<svg width="60" height="69" viewBox="0 0 60 69" fill="none" xmlns="http://www.w3.org/2000/svg">
<path d="M52.5511 13.2851C52.5039 12.9421 52.2035 12.7523 51.9552 12.7314C51.7074 12.7108 46.463 12.322 46.463 12.322C46.463 12.322 42.8208 8.70607 42.421 8.30583C42.021 7.90583 41.2398 8.0275 40.9365 8.11675C40.8919 8.1299 40.1408 8.36173 38.8983 8.74623C37.6816 5.24511 35.5343 2.02772 31.7567 2.02772C31.6524 2.02772 31.5451 2.03195 31.4378 2.03805C30.3634 0.617265 29.0326 0 27.8831 0C19.0833 0 14.8792 11.0006 13.561 16.5908C10.1417 17.6503 7.71252 18.4036 7.40225 18.501C5.49361 19.0997 5.43325 19.1599 5.18263 20.9584C4.99402 22.32 0 60.941 0 60.941L38.9145 68.2322L59.9996 63.6708C59.9996 63.6708 52.5979 13.628 52.5514 13.2851H52.5511ZM36.7475 9.41141L33.4547 10.4306C33.4558 10.1985 33.457 9.97019 33.457 9.72051C33.457 7.54458 33.155 5.79261 32.6704 4.40377C34.6169 4.64804 35.9132 6.86273 36.7475 9.41141ZM30.2558 4.83524C30.797 6.1912 31.1489 8.13719 31.1489 10.7631C31.1489 10.8975 31.1477 11.0203 31.1465 11.1446C29.0051 11.8079 26.6782 12.528 24.346 13.2505C25.6555 8.19685 28.11 5.75597 30.2558 4.83524ZM27.6414 2.36031C28.0212 2.36031 28.4038 2.48926 28.77 2.74129C25.9498 4.06836 22.9269 7.4107 21.6503 14.0853L16.2748 15.7501C17.7701 10.6591 21.3205 2.36031 27.6412 2.36031H27.6414Z" fill="#001569"/>
<path d="M51.9557 12.7316C51.7079 12.7109 46.4635 12.3222 46.4635 12.3222C46.4635 12.3222 42.8212 8.70622 42.4215 8.30598C42.2718 8.15707 42.0701 8.08073 41.8592 8.04785L38.9168 68.2319L60.0001 63.671C60.0001 63.671 52.5981 13.6281 52.5516 13.2852C52.5044 12.9423 52.204 12.7525 51.9557 12.7316Z" fill="#001569"/>
<path d="M31.7567 24.382L29.1568 32.1157C29.1568 32.1157 26.879 30.8999 24.0867 30.8999C19.9932 30.8999 19.7872 33.4688 19.7872 34.1161C19.7872 37.6483 28.9945 39.0016 28.9945 47.2751C28.9945 53.7843 24.8661 57.9757 19.2994 57.9757C12.6194 57.9757 9.20331 53.8183 9.20331 53.8183L10.9919 47.9088C10.9919 47.9088 14.5034 50.9234 17.4664 50.9234C19.4025 50.9234 20.1901 49.3991 20.1901 48.2853C20.1901 43.6779 12.6363 43.4723 12.6363 35.9015C12.6363 29.5294 17.2099 23.3631 26.4421 23.3631C29.9994 23.3631 31.7567 24.382 31.7567 24.382Z" fill="white"/>
</svg>
