<svg width="64" height="60" viewBox="0 0 64 60" fill="none" xmlns="http://www.w3.org/2000/svg">
<path d="M63.1582 11.0526C63.1582 4.9579 58.2003 0 52.1056 0C47.1161 0 42.9382 3.34737 41.5677 7.89474L18.9571 7.89474C18.3919 7.89158 13.3329 7.98 9.70136 11.6021C7.45294 13.8379 6.3161 16.8316 6.3161 20.4947L0.000305176 20.4947L9.47399 33.1263L18.9477 20.4947H12.6319C12.6319 14.7379 17.4761 14.2295 18.9477 14.2105L41.5677 14.2105C42.9382 18.7579 47.1161 22.1053 52.1056 22.1053C58.2003 22.1053 63.1582 17.1442 63.1582 11.0526ZM47.3687 11.0526C47.3687 8.44105 49.494 6.31579 52.1056 6.31579C54.7172 6.31579 56.8424 8.44105 56.8424 11.0526C56.8424 13.6642 54.7172 15.7895 52.1056 15.7895C49.494 15.7895 47.3687 13.6642 47.3687 11.0526ZM21.5908 52.1053L44.2203 52.1053C49.2919 52.0895 56.8424 48.7042 56.8424 39.4421H63.1582L53.6845 26.8105L44.2108 39.4421H50.5266C50.5266 45.2179 45.6666 45.7611 44.2108 45.7895L21.5908 45.7895C20.2203 41.2421 16.0424 37.8947 11.0529 37.8947C4.9582 37.8947 0.000305176 42.8526 0.000305176 48.9474C0.000305176 55.0421 4.9582 60 11.0529 60C16.0424 60 20.2203 56.6526 21.5908 52.1053ZM6.3161 48.9474C6.3161 46.3358 8.44136 44.2105 11.0529 44.2105C13.6645 44.2105 15.7898 46.3358 15.7898 48.9474C15.7898 51.5589 13.6645 53.6842 11.0529 53.6842C8.44136 53.6842 6.3161 51.5589 6.3161 48.9474Z" fill="#FFAF37"/>
</svg>
