<svg width="60" height="60" viewBox="0 0 60 60" fill="none" xmlns="http://www.w3.org/2000/svg">
<path d="M54 0H6C4.4087 0 2.88258 0.632141 1.75736 1.75736C0.632141 2.88258 0 4.4087 0 6V42C0 43.5913 0.632141 45.1174 1.75736 46.2426C2.88258 47.3679 4.4087 48 6 48H24V54H15V60H45V54H36V48H54C55.5913 48 57.1174 47.3679 58.2426 46.2426C59.3679 45.1174 60 43.5913 60 42V6C60 4.4087 59.3679 2.88258 58.2426 1.75736C57.1174 0.632141 55.5913 0 54 0ZM54 42H6V6H54V42ZM44.25 33C44.25 34.3924 43.6969 35.7277 42.7123 36.7123C41.7277 37.6969 40.3924 38.25 39 38.25C37.6076 38.25 36.2723 37.6969 35.2877 36.7123C34.3031 35.7277 33.75 34.3924 33.75 33L24 28.08C23.2407 28.6645 22.333 29.0247 21.3795 29.1197C20.4261 29.2147 19.465 29.0409 18.6053 28.6177C17.7456 28.1946 17.0216 27.5392 16.5153 26.7257C16.009 25.9122 15.7407 24.9732 15.7407 24.015C15.7407 23.0568 16.009 22.1178 16.5153 21.3043C17.0216 20.4908 17.7456 19.8354 18.6053 19.4123C19.465 18.9891 20.4261 18.8153 21.3795 18.9103C22.333 19.0053 23.2407 19.3655 24 19.95L33.75 15C33.7332 13.7963 34.1259 12.6225 34.8638 11.6713C35.6017 10.7201 36.6409 10.0478 37.811 9.76477C38.9811 9.48172 40.2127 9.60468 41.3038 10.1135C42.3948 10.6223 43.2806 11.4868 43.8158 12.5651C44.3511 13.6434 44.504 14.8717 44.2495 16.0483C43.995 17.225 43.3483 18.2802 42.4153 19.0411C41.4823 19.8019 40.3185 20.2231 39.1147 20.2356C37.9109 20.2481 36.7386 19.8512 35.79 19.11L26.13 24L35.79 28.83C36.5643 28.2169 37.4967 27.836 38.4788 27.7316C39.4609 27.6272 40.4525 27.8035 41.3384 28.2402C42.2243 28.6769 42.9682 29.3559 43.4835 30.1984C43.9989 31.041 44.2647 32.0124 44.25 33Z" fill="#FFAF37"/>
</svg>
