<svg width="50" height="47" viewBox="0 0 50 47" fill="none" xmlns="http://www.w3.org/2000/svg">
<path d="M9.28125 1.09375C9.57465 0.750733 9.93887 0.475346 10.3489 0.286535C10.7588 0.0977237 11.2049 -2.96896e-05 11.6562 6.76401e-09H38.3438C38.7951 -2.96896e-05 39.2412 0.0977237 39.6511 0.286535C40.0611 0.475346 40.4254 0.750733 40.7188 1.09375L48.8719 10.6062C49.5998 11.4557 50 12.5375 50 13.6562V14.4531C50.0002 15.9999 49.5171 17.5081 48.6182 18.7669C47.7193 20.0258 46.4496 20.9723 44.9865 21.4742C43.5234 21.9761 41.94 22.0084 40.4577 21.5665C38.9754 21.1245 37.6682 20.2305 36.7188 19.0094C36.0254 19.9024 35.137 20.6249 34.1214 21.1216C33.1057 21.6183 31.9899 21.876 30.8594 21.875C29.7288 21.8763 28.6129 21.6187 27.5972 21.1219C26.5816 20.6252 25.6931 19.9026 25 19.0094C24.3069 19.9026 23.4184 20.6252 22.4028 21.1219C21.3871 21.6187 20.2712 21.8763 19.1406 21.875C18.01 21.8763 16.8941 21.6187 15.8785 21.1219C14.8628 20.6252 13.9744 19.9026 13.2812 19.0094C12.3318 20.2305 11.0246 21.1245 9.5423 21.5665C8.05997 22.0084 6.47661 21.9761 5.01351 21.4742C3.55041 20.9723 2.2807 20.0258 1.38182 18.7669C0.482943 17.5081 -0.000170621 15.9999 4.52017e-08 14.4531V13.6562C3.93986e-05 12.5375 0.400177 11.4557 1.12812 10.6062L9.28438 1.09062L9.28125 1.09375ZM14.8438 14.4531C14.8438 15.5927 15.2965 16.6857 16.1023 17.4915C16.9081 18.2973 18.001 18.75 19.1406 18.75C20.2802 18.75 21.3732 18.2973 22.179 17.4915C22.9848 16.6857 23.4375 15.5927 23.4375 14.4531C23.4375 14.0387 23.6021 13.6413 23.8951 13.3483C24.1882 13.0552 24.5856 12.8906 25 12.8906C25.4144 12.8906 25.8118 13.0552 26.1049 13.3483C26.3979 13.6413 26.5625 14.0387 26.5625 14.4531C26.5625 15.5927 27.0152 16.6857 27.821 17.4915C28.6268 18.2973 29.7198 18.75 30.8594 18.75C31.999 18.75 33.0919 18.2973 33.8977 17.4915C34.7035 16.6857 35.1562 15.5927 35.1562 14.4531C35.1562 14.0387 35.3209 13.6413 35.6139 13.3483C35.9069 13.0552 36.3043 12.8906 36.7188 12.8906C37.1332 12.8906 37.5306 13.0552 37.8236 13.3483C38.1166 13.6413 38.2812 14.0387 38.2812 14.4531C38.2812 15.5927 38.734 16.6857 39.5398 17.4915C40.3456 18.2973 41.4385 18.75 42.5781 18.75C43.7177 18.75 44.8107 18.2973 45.6165 17.4915C46.4223 16.6857 46.875 15.5927 46.875 14.4531V13.6562C46.875 13.2838 46.742 12.9237 46.5 12.6406L38.3438 3.125H11.6562L3.5 12.6406C3.25796 12.9237 3.12497 13.2838 3.125 13.6562V14.4531C3.125 15.5927 3.57771 16.6857 4.38353 17.4915C5.18935 18.2973 6.28227 18.75 7.42188 18.75C8.56148 18.75 9.6544 18.2973 10.4602 17.4915C11.266 16.6857 11.7188 15.5927 11.7188 14.4531C11.7188 14.0387 11.8834 13.6413 12.1764 13.3483C12.4694 13.0552 12.8668 12.8906 13.2812 12.8906C13.6957 12.8906 14.0931 13.0552 14.3861 13.3483C14.6791 13.6413 14.8438 14.0387 14.8438 14.4531ZM4.6875 23.4375C5.1019 23.4375 5.49933 23.6021 5.79235 23.8951C6.08538 24.1882 6.25 24.5856 6.25 25V43.75H9.375V28.125C9.375 27.2962 9.70424 26.5013 10.2903 25.9153C10.8763 25.3292 11.6712 25 12.5 25H21.875C22.7038 25 23.4987 25.3292 24.0847 25.9153C24.6708 26.5013 25 27.2962 25 28.125V43.75H43.75V25C43.75 24.5856 43.9146 24.1882 44.2076 23.8951C44.5007 23.6021 44.8981 23.4375 45.3125 23.4375C45.7269 23.4375 46.1243 23.6021 46.4174 23.8951C46.7104 24.1882 46.875 24.5856 46.875 25V43.75H48.4375C48.8519 43.75 49.2493 43.9146 49.5424 44.2076C49.8354 44.5007 50 44.8981 50 45.3125C50 45.7269 49.8354 46.1243 49.5424 46.4174C49.2493 46.7104 48.8519 46.875 48.4375 46.875H1.5625C1.1481 46.875 0.750671 46.7104 0.457646 46.4174C0.16462 46.1243 4.52017e-08 45.7269 4.52017e-08 45.3125C4.52017e-08 44.8981 0.16462 44.5007 0.457646 44.2076C0.750671 43.9146 1.1481 43.75 1.5625 43.75H3.125V25C3.125 24.5856 3.28962 24.1882 3.58265 23.8951C3.87567 23.6021 4.2731 23.4375 4.6875 23.4375ZM12.5 43.75H21.875V28.125H12.5V43.75ZM28.125 28.125C28.125 27.2962 28.4542 26.5013 29.0403 25.9153C29.6263 25.3292 30.4212 25 31.25 25H37.5C38.3288 25 39.1237 25.3292 39.7097 25.9153C40.2958 26.5013 40.625 27.2962 40.625 28.125V37.5C40.625 38.3288 40.2958 39.1237 39.7097 39.7097C39.1237 40.2958 38.3288 40.625 37.5 40.625H31.25C30.4212 40.625 29.6263 40.2958 29.0403 39.7097C28.4542 39.1237 28.125 38.3288 28.125 37.5V28.125ZM37.5 28.125H31.25V37.5H37.5V28.125Z" fill="#FFAF37"/>
</svg>
