<svg width="20" height="20" viewBox="0 0 20 20" fill="none" xmlns="http://www.w3.org/2000/svg">
<path d="M11.7202 7.21991C11.7888 7.14622 11.8716 7.08712 11.9636 7.04613C12.0556 7.00514 12.1549 6.98309 12.2556 6.98132C12.3563 6.97954 12.4564 6.99807 12.5498 7.03579C12.6431 7.07351 12.728 7.12965 12.7992 7.20087C12.8704 7.27209 12.9266 7.35692 12.9643 7.45031C13.002 7.5437 13.0205 7.64373 13.0187 7.74443C13.017 7.84513 12.9949 7.94445 12.9539 8.03645C12.9129 8.12845 12.8538 8.21125 12.7802 8.27991L8.28015 12.7799C8.21149 12.8536 8.12869 12.9127 8.03669 12.9537C7.94469 12.9947 7.84538 13.0167 7.74468 13.0185C7.64397 13.0203 7.54394 13.0018 7.45056 12.964C7.35717 12.9263 7.27233 12.8702 7.20112 12.7989C7.1299 12.7277 7.07375 12.6429 7.03603 12.5495C6.99831 12.4561 6.97979 12.3561 6.98156 12.2554C6.98334 12.1547 7.00538 12.0554 7.04637 11.9634C7.08736 11.8714 7.14647 11.7886 7.22015 11.7199L11.7202 7.21991Z" fill="#001569"/>
<path d="M15.75 0C16.8772 0 17.9582 0.447767 18.7552 1.2448C19.5522 2.04183 20 3.12283 20 4.25V5.25C20 13.396 13.396 20 5.25 20H4.25C3.12283 20 2.04183 19.5522 1.2448 18.7552C0.447767 17.9582 0 16.8772 0 15.75V14.75C0 6.604 6.604 0 14.75 0H15.75ZM18.5 4.25C18.5 3.52065 18.2103 2.82118 17.6945 2.30546C17.1788 1.78973 16.4793 1.5 15.75 1.5H14.75C14.347 1.5 13.948 1.518 13.554 1.553L18.447 6.446C18.482 6.052 18.5 5.653 18.5 5.25V4.25ZM18.153 8.274L11.726 1.847C9.30685 2.41596 7.09608 3.65281 5.34546 5.4167C3.59483 7.18059 2.37469 9.40063 1.824 11.824L8.176 18.176C10.5994 17.6254 12.8195 16.4053 14.5834 14.6547C16.3473 12.904 17.5841 10.6932 18.153 8.274V8.274ZM1.543 13.665C1.515 14.023 1.5 14.385 1.5 14.75V15.75C1.5 16.4793 1.78973 17.1788 2.30546 17.6945C2.82118 18.2103 3.52065 18.5 4.25 18.5H5.25C5.615 18.5 5.977 18.485 6.335 18.456L1.544 13.665H1.543Z" fill="#001569"/>
</svg>
