<svg width="50" height="72" viewBox="0 0 50 72" fill="none" xmlns="http://www.w3.org/2000/svg">
<path d="M25 71.4286C38.7821 71.4286 50 60.2107 50 46.4286C50 32.6464 38.7821 21.4286 25 21.4286C11.2143 21.4286 0 32.6464 0 46.4286C0 60.2107 11.2143 71.4286 25 71.4286ZM25 28.5714C34.8464 28.5714 42.8571 36.5821 42.8571 46.4286C42.8571 56.275 34.8464 64.2857 25 64.2857C15.1536 64.2857 7.14286 56.275 7.14286 46.4286C7.14286 36.5821 15.1536 28.5714 25 28.5714ZM21.4286 0H7.14286V19.7071C11.4167 16.8472 16.3171 15.0598 21.4286 14.4964V0ZM42.8571 0H28.5714V14.4964C33.6829 15.0598 38.5833 16.8472 42.8571 19.7071V0Z" fill="#FFAF37"/>
<path d="M17.9255 49.3247L16.2541 59.0604L25.0005 54.464L33.7469 59.0604L32.0755 49.3247L39.1541 42.4247L29.3755 41.0033L25.0005 32.1426L20.6255 41.0033L10.8469 42.4247L17.9255 49.3247Z" fill="#FFAF37"/>
</svg>
