<svg width="88" height="88" viewBox="0 0 88 88" fill="none" xmlns="http://www.w3.org/2000/svg">
<path d="M39.7788 4.20102L57.4542 6.3176L72.4608 15.8936L81.8264 31.0325L83.6961 48.7357L77.6994 65.497L65.0242 77.9965L48.1808 83.7586L30.5054 81.642L15.4988 72.0659L6.13317 56.9271L4.26354 39.2239L10.2602 22.4626L22.9354 9.96311L39.7788 4.20102Z" fill="#001569"/>
<path d="M13.8665 53.1931C13.771 53.2032 13.6777 53.1768 13.5866 53.114C13.5074 53.05 13.4622 52.9643 13.4509 52.8569L13.4696 52.692L16.5643 40.6906C16.6163 40.3834 16.8094 40.2122 17.1436 40.1769L19.0947 39.9709C19.405 39.9381 19.6296 40.0652 19.7685 40.3522L25.3018 51.4424C25.3176 51.4769 25.3292 51.53 25.3368 51.6016C25.3481 51.709 25.3217 51.8023 25.2577 51.8815C25.1937 51.9606 25.1139 52.0052 25.0184 52.0153L23.4611 52.1798C23.306 52.1962 23.1829 52.173 23.0918 52.1102C23.0007 52.0474 22.9388 51.9755 22.9061 51.8945L21.8341 49.7995L16.5177 50.361L15.907 52.6337C15.8355 52.8705 15.6744 53.0021 15.4238 53.0286L13.8665 53.1931ZM20.9902 47.8071L18.3654 42.4914L16.9268 48.2363L20.9902 47.8071ZM36.9897 50.1356C37.0305 50.1796 37.0554 50.2433 37.0642 50.3269C37.0755 50.4343 37.0439 50.5342 36.9691 50.6265C36.9064 50.7176 36.8153 50.7695 36.696 50.7821L34.8522 50.9768C34.709 50.9919 34.5991 50.9794 34.5225 50.9392C34.4446 50.8871 34.3648 50.8171 34.2831 50.7292L30.6843 46.1317L28.9838 46.3113L29.4904 51.1086C29.503 51.228 29.472 51.3338 29.3973 51.4262C29.3345 51.5173 29.2375 51.5698 29.1062 51.5836L27.4772 51.7557C27.3579 51.7683 27.2521 51.7372 27.1597 51.6625C27.0673 51.5878 27.0149 51.4907 27.0023 51.3714L25.7716 39.7182C25.7577 39.5869 25.7822 39.4758 25.8449 39.3847C25.9197 39.2923 26.0226 39.2392 26.1539 39.2253L27.7829 39.0533C27.9141 39.0394 28.02 39.0705 28.1004 39.1465C28.1928 39.2212 28.2459 39.3242 28.2597 39.4554L28.7475 44.0738L30.3246 43.9253L32.7216 38.8575C32.8183 38.6301 33.0217 38.5 33.332 38.4673L35.1041 38.2801C35.2235 38.2675 35.3168 38.2939 35.384 38.3592C35.4632 38.4232 35.5084 38.5089 35.5198 38.6163C35.5248 38.6641 35.5085 38.7382 35.4708 38.8387L32.6642 44.6556L36.9897 50.1356ZM48.8093 52.0368C48.69 52.0494 48.5842 52.0183 48.4918 51.9436C48.4007 51.8808 48.3482 51.7838 48.3344 51.6526L48.1151 49.5761L39.4691 50.4892C39.3379 50.5031 39.2261 50.4726 39.1337 50.3979C39.0533 50.3219 39.0061 50.2183 38.9923 50.0871L37.7616 38.4339C37.7477 38.3026 37.7788 38.1967 37.8547 38.1163C37.9295 38.024 38.0265 37.9715 38.1458 37.9589L39.7748 37.7868C39.906 37.773 40.0119 37.804 40.0923 37.88C40.1834 37.9428 40.2359 38.0398 40.2497 38.1711L41.2914 48.0342L46.572 47.4765L45.5304 37.6134C45.5165 37.4821 45.5476 37.3763 45.6235 37.2959C45.6983 37.2035 45.7953 37.151 45.9146 37.1384L47.5257 36.9683C47.6569 36.9544 47.7687 36.9848 47.8611 37.0596C47.9522 37.1223 48.0047 37.2194 48.0185 37.3506L49.0602 47.2138L49.9194 47.123C50.0507 47.1092 50.1625 47.1396 50.2548 47.2143C50.3472 47.289 50.3997 47.386 50.4123 47.5054L50.8225 51.3898C50.8351 51.5091 50.8041 51.615 50.7294 51.7073C50.6546 51.7997 50.5516 51.8528 50.4204 51.8667L48.8093 52.0368ZM53.0168 49.0584C52.8856 49.0723 52.7738 49.0419 52.6814 48.9672C52.601 48.8912 52.5538 48.7876 52.54 48.6563L51.3112 37.021C51.2973 36.8897 51.3277 36.7779 51.4025 36.6856C51.4772 36.5932 51.5802 36.5401 51.7114 36.5262L53.3225 36.3561C53.4537 36.3422 53.5596 36.3733 53.64 36.4492C53.7324 36.524 53.7855 36.6269 53.7993 36.7582L54.6671 44.9745L59.6716 35.9752C59.7827 35.7704 59.9456 35.6566 60.1604 35.6339L61.6462 35.477C61.7774 35.4632 61.8833 35.4942 61.9637 35.5702C62.0561 35.6449 62.1092 35.7479 62.1231 35.8792L63.3537 47.5324C63.3663 47.6517 63.3353 47.7575 63.2606 47.8499C63.1978 47.941 63.1008 47.9935 62.9695 48.0073L61.3585 48.1775C61.2272 48.1913 61.116 48.1669 61.0249 48.1041C60.9326 48.0294 60.8794 47.9264 60.8656 47.7951L60.0149 39.7399L55.0094 48.5584C54.9478 48.6614 54.8838 48.7406 54.8172 48.7959C54.7507 48.8512 54.6518 48.8858 54.5205 48.8996L53.0168 49.0584ZM73.8143 34.1919C73.9456 34.1781 74.0514 34.2091 74.1318 34.2851C74.2229 34.3479 74.2754 34.4449 74.2893 34.5762L75.5219 46.2473C75.5345 46.3666 75.5034 46.4725 75.4287 46.5648C75.3659 46.6559 75.2689 46.7084 75.1376 46.7223L73.5266 46.8924C73.3953 46.9063 73.2835 46.8758 73.1911 46.8011C73.0988 46.7264 73.0463 46.6294 73.0337 46.5101L72.6008 42.4109L70.6317 42.6188L68.6603 46.9176C68.6051 47.0803 68.5282 47.2091 68.4296 47.304C68.331 47.3989 68.1863 47.4564 67.9953 47.4766L66.3664 47.6486C66.2709 47.6587 66.1836 47.6317 66.1044 47.5677C66.0253 47.5036 65.98 47.4179 65.9687 47.3105C65.9624 47.2508 65.9733 47.1833 66.0016 47.1079L68.1491 42.5914C67.367 42.3844 66.7284 41.9933 66.2333 41.4181C65.7488 40.8297 65.4587 40.0821 65.3629 39.1751C65.2835 38.4233 65.3787 37.7254 65.6486 37.0815C65.9291 36.4244 66.3847 35.8816 67.0151 35.453C67.6456 35.0244 68.4382 34.7597 69.3929 34.6589L73.8143 34.1919ZM71.9656 36.3963L69.7101 36.6345C69.0896 36.7 68.6205 36.9426 68.3028 37.3623C67.9851 37.782 67.859 38.3021 67.9246 38.9227C67.9901 39.5432 68.2076 40.0029 68.577 40.3018C68.9452 40.5887 69.4634 40.6969 70.1317 40.6263L72.3872 40.3881L71.9656 36.3963Z" fill="white"/>
</svg>
