<svg width="20" height="18" viewBox="0 0 20 18" fill="none" xmlns="http://www.w3.org/2000/svg">
<path d="M14.3571 1.27418L18.725 8.91927L14.3571 16.5644H5.64166L1.27377 8.91927L5.64166 1.27418H14.3571ZM5.64166 0C5.41707 7.24424e-05 5.19649 0.0595075 5.00226 0.172283C4.80804 0.285059 4.64707 0.447169 4.53567 0.642187L0.167781 8.28728C0.0578313 8.47976 0 8.6976 0 8.91927C0 9.14094 0.0578313 9.35878 0.167781 9.55126L4.53567 17.1964C4.64707 17.3914 4.80804 17.5535 5.00226 17.6663C5.19649 17.779 5.41707 17.8385 5.64166 17.8385H14.3571C14.5817 17.8385 14.8022 17.779 14.9965 17.6663C15.1907 17.5535 15.3517 17.3914 15.4631 17.1964L19.8322 9.55126C19.9422 9.35878 20 9.14094 20 8.91927C20 8.6976 19.9422 8.47976 19.8322 8.28728L15.4631 0.642187C15.3517 0.447169 15.1907 0.285059 14.9965 0.172283C14.8022 0.0595075 14.5817 7.24424e-05 14.3571 0H5.64166Z" fill="#001569"/>
<path d="M8.53129 6.28551C8.1661 6.49315 7.84558 6.77097 7.58819 7.10298C7.3308 7.435 7.14162 7.81464 7.03155 8.22006C6.92148 8.62549 6.89269 9.04867 6.94684 9.46527C7.00099 9.88186 7.13701 10.2836 7.34706 10.6474C7.55711 11.0113 7.83705 11.3299 8.17077 11.5851C8.50448 11.8403 8.88537 12.0269 9.29151 12.1343C9.69766 12.2417 10.121 12.2677 10.5373 12.2108C10.9535 12.1539 11.3543 12.0152 11.7167 11.8027C12.4424 11.3773 12.9704 10.6821 13.1854 9.86889C13.4004 9.05566 13.285 8.19039 12.8644 7.46192C12.4438 6.73345 11.7521 6.20091 10.9403 5.98051C10.1286 5.76012 9.26254 5.86976 8.53129 6.28551V6.28551ZM6.26325 11.2739C5.95847 10.7664 5.75781 10.2032 5.67298 9.61722C5.58814 9.03128 5.62082 8.43431 5.76912 7.86113C5.91742 7.28795 6.17837 6.75003 6.53674 6.27876C6.89511 5.80749 7.34374 5.41229 7.85645 5.11622C8.36915 4.82015 8.93568 4.62913 9.52299 4.55431C10.1103 4.47949 10.7066 4.52236 11.2772 4.68042C11.8478 4.83848 12.3811 5.10858 12.8462 5.47494C13.3113 5.84131 13.6988 6.29661 13.9861 6.8143C14.5681 7.83804 14.7216 9.05046 14.4131 10.187C14.1045 11.3235 13.359 12.2918 12.3391 12.8806C11.3192 13.4695 10.1079 13.631 8.96934 13.33C7.83081 13.029 6.85756 12.2899 6.26198 11.2739H6.26325Z" fill="#001569"/>
</svg>
