<svg width="50" height="40" viewBox="0 0 50 40" fill="none" xmlns="http://www.w3.org/2000/svg">
<path d="M3.57139 17.8569H24.9997V21.4283H3.57139V17.8569Z" fill="#FFAF37"/>
<path d="M0 8.92847H17.8569V12.4999H0V8.92847Z" fill="#FFAF37"/>
<path d="M49.8554 18.9391L44.4983 6.43921C44.3608 6.11792 44.132 5.8441 43.8402 5.65172C43.5485 5.45934 43.2067 5.35689 42.8572 5.35708H37.5001V1.78569C37.5001 1.3121 37.312 0.8579 36.9771 0.523018C36.6422 0.188135 36.188 0 35.7145 0H7.14337V3.57139H33.9288V25.9925C33.1151 26.465 32.403 27.0939 31.8335 27.843C31.2641 28.592 30.8486 29.4464 30.6109 30.3568H19.3896C18.955 28.6735 17.9214 27.2065 16.4825 26.2308C15.0437 25.255 13.2983 24.8376 11.5737 25.0566C9.84902 25.2757 8.26347 26.1162 7.11422 27.4207C5.96497 28.7251 5.33092 30.404 5.33092 32.1425C5.33092 33.881 5.96497 35.5598 7.11422 36.8643C8.26347 38.1687 9.84902 39.0093 11.5737 39.2283C13.2983 39.4474 15.0437 39.0299 16.4825 38.0542C17.9214 37.0785 18.955 35.6115 19.3896 33.9282H30.6109C30.9994 35.4607 31.8878 36.82 33.1355 37.7909C34.3833 38.7619 35.9191 39.289 37.5001 39.289C39.0812 39.289 40.617 38.7619 41.8648 37.7909C43.1125 36.82 44.0009 35.4607 44.3893 33.9282H48.2143C48.6879 33.9282 49.1421 33.74 49.477 33.4051C49.8119 33.0703 50 32.6161 50 32.1425V19.6426C50.0001 19.4007 49.9509 19.1613 49.8554 18.9391ZM12.5004 35.7139C11.7941 35.7139 11.1036 35.5044 10.5163 35.112C9.92898 34.7195 9.47122 34.1618 9.20091 33.5092C8.9306 32.8566 8.85988 32.1385 8.99768 31.4457C9.13548 30.7529 9.47563 30.1166 9.97509 29.6171C10.4746 29.1177 11.1109 28.7775 11.8037 28.6397C12.4965 28.5019 13.2146 28.5726 13.8672 28.8429C14.5197 29.1133 15.0775 29.571 15.4699 30.1583C15.8624 30.7456 16.0718 31.4361 16.0718 32.1425C16.0709 33.0894 15.6943 33.9972 15.0248 34.6668C14.3552 35.3363 13.4473 35.7129 12.5004 35.7139ZM37.5001 8.92846H41.6787L45.5072 17.8569H37.5001V8.92846ZM37.5001 35.7139C36.7938 35.7139 36.1033 35.5044 35.516 35.112C34.9287 34.7195 34.4709 34.1618 34.2006 33.5092C33.9303 32.8566 33.8596 32.1385 33.9974 31.4457C34.1352 30.7529 34.4753 30.1166 34.9748 29.6171C35.4743 29.1177 36.1106 28.7775 36.8034 28.6397C37.4962 28.5019 38.2143 28.5726 38.8669 28.8429C39.5194 29.1133 40.0772 29.571 40.4696 30.1583C40.8621 30.7456 41.0715 31.4361 41.0715 32.1425C41.0706 33.0894 40.694 33.9972 40.0245 34.6668C39.3549 35.3363 38.447 35.7129 37.5001 35.7139ZM46.4286 30.3568H44.3893C43.996 28.8272 43.1062 27.4714 41.8594 26.5019C40.6127 25.5324 39.0795 25.0041 37.5001 24.9997V21.4283H46.4286V30.3568Z" fill="#FFAF37"/>
</svg>
