<svg width="30" height="30" viewBox="0 0 30 30" fill="none" xmlns="http://www.w3.org/2000/svg">
<path d="M21.7465 17.9429C21.3816 17.7554 19.5635 16.8648 19.2254 16.7442C18.8872 16.617 18.6394 16.5567 18.395 16.9317C18.1473 17.3034 17.4441 18.1304 17.2232 18.3815C17.0089 18.6293 16.7912 18.6594 16.4263 18.4752C14.2567 17.3904 12.8337 16.54 11.404 14.0858C11.0257 13.4329 11.7824 13.4798 12.4888 12.0702C12.6094 11.8224 12.5491 11.6115 12.4554 11.424C12.3616 11.2365 11.625 9.42179 11.317 8.68184C11.019 7.96198 10.711 8.06243 10.4866 8.04904C10.2724 8.03564 10.0279 8.03564 9.78018 8.03564C9.53241 8.03564 9.13398 8.12939 8.79581 8.49434C8.45765 8.86599 7.50342 9.75995 7.50342 11.5747C7.50342 13.3894 8.82595 15.1472 9.00675 15.3949C9.19424 15.6427 11.6083 19.3659 15.3147 20.9696C17.6584 21.9808 18.5758 22.0678 19.7477 21.8937C20.4608 21.7866 21.9307 21.0031 22.2354 20.1359C22.5401 19.2721 22.5401 18.5322 22.4497 18.3781C22.3593 18.2141 22.1115 18.1203 21.7465 17.9429Z" fill="#FFAF37"/>
<path d="M28.8347 9.18738C28.078 7.38942 26.9932 5.7756 25.6104 4.38945C24.2276 3.00666 22.6137 1.9185 20.8124 1.16516C18.9709 0.391736 17.0156 0 15 0H14.933C12.904 0.0100445 10.9387 0.411825 9.09048 1.20199C7.3059 1.96538 5.70548 3.05018 4.33607 4.43298C2.96667 5.81578 1.89191 7.4229 1.14861 9.21417C0.378534 11.0691 -0.00985457 13.0411 0.000189951 15.0701C0.0102345 17.3938 0.566031 19.7006 1.60731 21.7631V26.8523C1.60731 27.7028 2.29704 28.3925 3.14747 28.3925H8.24004C10.3025 29.4338 12.6094 29.9896 14.933 29.9996H15.0034C17.0089 29.9996 18.9542 29.6112 20.7856 28.8512C22.5769 28.1046 24.1874 27.0331 25.5668 25.6637C26.9496 24.2943 28.0378 22.6939 28.7978 20.9093C29.588 19.0611 29.9898 17.0958 29.9998 15.0668C30.0099 13.0277 29.6148 11.049 28.8347 9.18738ZM23.7756 23.8524C21.4285 26.176 18.3147 27.455 15 27.455H14.9431C12.9241 27.445 10.9186 26.9427 9.1474 25.9986L8.86615 25.8479H4.15192V21.1337L4.00126 20.8524C3.05707 19.0812 2.55485 17.0757 2.5448 15.0567C2.53141 11.7186 3.80706 8.58471 6.14743 6.22425C8.48446 3.86379 11.6083 2.558 14.9464 2.54461H15.0034C16.6774 2.54461 18.3013 2.86938 19.8314 3.51223C21.3247 4.13834 22.664 5.039 23.8157 6.19077C24.9642 7.33919 25.8682 8.68181 26.4943 10.1751C27.1438 11.722 27.4686 13.3626 27.4619 15.0567C27.4418 18.3915 26.1327 21.5154 23.7756 23.8524Z" fill="#FFAF37"/>
</svg>
