<svg width="56" height="64" viewBox="0 0 56 64" fill="none" xmlns="http://www.w3.org/2000/svg">
<path d="M28.0006 31.6223C35.9045 31.6223 42.3118 25.215 42.3118 17.3112C42.3118 9.40733 35.9045 3 28.0006 3C20.0968 3 13.6895 9.40733 13.6895 17.3112C13.6895 25.215 20.0968 31.6223 28.0006 31.6223Z" stroke="#FFAF37" stroke-width="6"/>
<path d="M42.3112 37.3467H43.3187C45.4112 37.3473 47.4315 38.1119 49 39.497C50.5685 40.8821 51.5772 42.7923 51.8367 44.8686L52.9558 53.8103C53.0565 54.6158 52.9847 55.4335 52.7451 56.2091C52.5056 56.9848 52.1039 57.7006 51.5666 58.3091C51.0292 58.9176 50.3687 59.4049 49.6286 59.7386C48.8886 60.0723 48.0861 60.2447 47.2743 60.2446H8.72571C7.91393 60.2447 7.1114 60.0723 6.37137 59.7386C5.63135 59.4049 4.97075 58.9176 4.43344 58.3091C3.89612 57.7006 3.49437 56.9848 3.25485 56.2091C3.01533 55.4335 2.94352 54.6158 3.04418 53.8103L4.16045 44.8686C4.42005 42.7913 5.42961 40.8803 6.99931 39.4951C8.569 38.1099 10.5907 37.3459 12.6842 37.3467H13.6888" stroke="#FFAF37" stroke-width="6" stroke-linecap="round" stroke-linejoin="round"/>
</svg>
