<svg width="60" height="59" viewBox="0 0 60 59" fill="none" xmlns="http://www.w3.org/2000/svg">
<path d="M29.7395 0C13.3153 0 0 13.1188 0 29.3005C0 45.4872 13.3153 58.606 29.7395 58.606C46.1688 58.606 59.4851 45.4872 59.4851 29.3005C59.4851 13.1188 46.1698 0 29.7395 0ZM29.7395 39.1474C27.9156 39.147 26.1329 38.6138 24.6166 37.6152C23.1003 36.6166 21.9186 35.1974 21.221 33.5372C20.5233 31.8769 20.341 30.0501 20.697 28.2878C21.0531 26.5254 21.9316 24.9067 23.2213 23.6362C24.5111 22.3658 26.1543 21.5006 27.9432 21.1502C29.732 20.7998 31.5861 20.9798 33.2711 21.6676C34.9561 22.3553 36.3962 23.5199 37.4095 25.014C38.4227 26.5081 38.9635 28.2647 38.9635 30.0616C38.9635 31.2549 38.7249 32.4366 38.2613 33.5391C37.7977 34.6415 37.1183 35.6432 36.2617 36.487C35.4052 37.3307 34.3883 37.9999 33.2692 38.4564C32.1501 38.9129 30.9507 39.1477 29.7395 39.1474Z" fill="#FFAF37"/>
<path d="M39.4768 31.5116C39.4768 33.8256 38.5708 35.9155 37.125 37.5183C42.2802 41.7158 47.5354 45.7927 52.8862 49.7455C56.4065 45.6924 58.7316 40.766 59.6084 35.5019C60.4853 30.2379 59.8805 24.8377 57.8597 19.8887C51.3318 22.2852 44.9849 25.0241 38.5998 27.6998C39.1715 28.892 39.4709 30.1931 39.4768 31.5116Z" fill="#FFE76B"/>
</svg>
